<?xml version="1.0" encoding="utf-8"?>
<svg width="14px" height="14px" viewbox="0 0 14 14" version="1.1" xmlns:xlink="http://www.w3.org/1999/xlink" xmlns="http://www.w3.org/2000/svg">
  <g id="calendar">
    <path d="M12.5 1.5L11 1.5L11 0.500009C11 0.223857 10.7761 0 10.5 0C10.2238 0 9.99998 0.223857 9.99998 0.500009L9.99998 1.5L3.99999 1.5L3.99999 0.500009C3.99999 0.223857 3.77613 0 3.50001 0C3.22388 0 3 0.223857 3 0.500009L3 1.5L1.5 1.5C0.671572 1.5 0 2.17157 0 3L0 12.5C0 13.3284 0.671572 14 1.5 14L12.5 14C13.3284 14 14 13.3284 14 12.5L14 3C14 2.17157 13.3284 1.5 12.5 1.5ZM12.5273 12.0714C12.5273 12.3081 12.3408 12.5 12.1107 12.5L1.91085 12.5C1.68073 12.5 1.49418 12.3081 1.49418 12.0714L1.49418 6.5L12.5273 6.5L12.5273 12.0714ZM1.4846 5.00001L1.4846 3.40393C1.4846 3.12778 1.70846 2.90392 1.98461 2.90392L3 2.90392L3 3.49998C3 3.77613 3.22386 3.99999 3.50001 3.99999C3.77616 3.99999 4.00002 3.77613 4.00002 3.49998L4.00002 2.90392L10 2.90392L10 3.49998C10 3.77613 10.2239 3.99999 10.5 3.99999C10.7762 3.99999 11 3.77613 11 3.49998L11 2.90392L12.0507 2.90392C12.3269 2.90392 12.5507 3.12778 12.5507 3.40393L12.5507 5.00001L1.4846 5.00001Z" id="Shape" fill="#999999" stroke="none" />
  </g>
</svg>