<?xml version="1.0" encoding="utf-8"?>
<svg width="8px" height="14px" viewbox="0 0 8 14" version="1.1" xmlns:xlink="http://www.w3.org/1999/xlink" xmlns="http://www.w3.org/2000/svg">
  <path d="M4.30828 6.14443L4.30828 6.14443C2.52526 5.68553 1.95188 5.215 1.95188 4.4761C1.95188 3.62833 2.74127 3.03333 4.07264 3.03333C5.47077 3.03333 5.98918 3.69443 6.0363 4.66667L7.7722 4.66667C7.72113 3.325 6.89249 2.1039 5.25085 1.70333L5.25085 0L2.89444 0L2.89444 1.68C1.37062 2.01057 0.145287 2.98277 0.145287 4.48777C0.145287 6.28443 1.64945 7.17886 3.837 7.7C5.8046 8.16667 6.19341 8.84723 6.19341 9.57833C6.19341 10.1111 5.81244 10.9667 4.07264 10.9667C2.45457 10.9667 1.81443 10.2472 1.73196 9.33333L0 9.33333C0.0981959 11.0367 1.38244 11.9894 2.89444 12.3122L2.89444 14L5.25085 14L5.25085 12.3278C6.77857 12.0361 8 11.1611 8 9.56277C8 7.36167 6.09131 6.60723 4.30828 6.14443Z" id="Path" fill="#999999" fill-rule="evenodd" stroke="none" />
</svg>