<?xml version="1.0" encoding="utf-8"?>
<svg width="13px" height="13px" viewbox="0 0 13 13" version="1.1" xmlns:xlink="http://www.w3.org/1999/xlink" xmlns="http://www.w3.org/2000/svg">
  <g id="hash">
    <path d="M12.25 4.55L12.25 2.8L9.975 2.8L10.5 0.35L8.75 0L8.1375 2.8L5.5125 2.8L6.125 0.35L4.375 0L3.7625 2.8L0.875 2.8L0.875 4.55L3.4125 4.55L2.625 8.05L0 8.05L0 9.8L2.275 9.8L1.75 12.25L3.5 12.6L4.1125 9.8L6.7375 9.8L6.125 12.25L7.875 12.6L8.4875 9.8L11.375 9.8L11.375 8.05L8.8375 8.05L9.625 4.55L12.25 4.55ZM7 8.05L4.375 8.05L5.25 4.55L7.875 4.55L7 8.05Z" id="Shape" fill="#999999" stroke="none" />
  </g>
</svg>