<?xml version="1.0" encoding="utf-8"?>
<svg width="12px" height="13px" viewbox="0 0 12 13" version="1.1" xmlns:xlink="http://www.w3.org/1999/xlink" xmlns="http://www.w3.org/2000/svg">
  <g id="user">
    <path d="M6.00001 0C2.13086 0 0 1.95275 0 5.49861C0 5.77555 0.210388 6 0.469971 6L11.53 6C11.7896 6 12 5.77555 12 5.49861C12 1.95294 9.86916 0 6.00001 0ZM1.53466 4.72122C1.69835 2.53084 3.19854 1.42109 6.00002 1.42109C8.80151 1.42109 10.3017 2.53084 10.4655 4.72122L1.53466 4.72122L1.53466 4.72122Z" transform="translate(0 7)" id="Shape" fill="#999999" stroke="none" />
    <path d="M3 0C1.28969 0 0 1.24972 0 2.90685C0 4.61252 1.34579 6 3 6C4.65421 6 6 4.61252 6 2.90699C6 1.24972 4.71031 0 3 0ZM3 4.64339C2.09377 4.64339 1.35661 3.87413 1.35661 2.92855C1.35661 2.01771 2.04778 1.35661 3 1.35661C3.93698 1.35661 4.64339 2.03232 4.64339 2.92855C4.64339 3.87413 3.90623 4.64339 3 4.64339Z" transform="translate(3 0)" id="Shape" fill="#999999" stroke="none" />
  </g>
</svg>